<mxfile host="app.diagrams.net" modified="2021-03-27T08:38:28.514Z" agent="5.0 (Windows NT 10.0; Win64; x64) AppleWebKit/537.36 (KHTML, like Gecko) Chrome/89.0.4389.90 Safari/537.36 Edg/89.0.774.63" etag="q1nNB5-tIT2cwhgdIGPi" version="14.5.1" type="github">
  <diagram id="2BOUEqdc1TXggAm2nHoE" name="Page-1">
    <mxGraphModel dx="996" dy="654" grid="1" gridSize="10" guides="1" tooltips="1" connect="1" arrows="1" fold="1" page="1" pageScale="1" pageWidth="827" pageHeight="1169" math="0" shadow="0">
      <root>
        <mxCell id="0" />
        <mxCell id="1" parent="0" />
        <mxCell id="mPrPklc40p1tScWxE4RS-1" value="&lt;font color=&quot;#000000&quot; style=&quot;font-size: 19px&quot;&gt;&lt;font style=&quot;font-size: 19px&quot;&gt;&lt;br&gt;&lt;/font&gt;&lt;/font&gt;" style="fontColor=#0066CC;verticalAlign=top;verticalLabelPosition=bottom;labelPosition=center;align=center;html=1;outlineConnect=0;fillColor=#CCCCCC;strokeColor=#6881B3;gradientColor=none;gradientDirection=north;strokeWidth=2;shape=mxgraph.networks.server;" parent="1" vertex="1">
          <mxGeometry x="650" y="260" width="90" height="100" as="geometry" />
        </mxCell>
        <mxCell id="mPrPklc40p1tScWxE4RS-2" value="&lt;font style=&quot;color: rgb(0 , 0 , 0) ; font-size: 19px&quot;&gt;&lt;br&gt;&lt;/font&gt;" style="fontColor=#0066CC;verticalAlign=top;verticalLabelPosition=bottom;labelPosition=center;align=center;html=1;outlineConnect=0;fillColor=#CCCCCC;strokeColor=#6881B3;gradientColor=none;gradientDirection=north;strokeWidth=2;shape=mxgraph.networks.server;" parent="1" vertex="1">
          <mxGeometry x="650" y="470" width="90" height="100" as="geometry" />
        </mxCell>
        <mxCell id="mPrPklc40p1tScWxE4RS-11" style="edgeStyle=none;rounded=0;orthogonalLoop=1;jettySize=auto;html=1;" parent="1" source="mPrPklc40p1tScWxE4RS-5" target="mPrPklc40p1tScWxE4RS-2" edge="1">
          <mxGeometry relative="1" as="geometry">
            <mxPoint x="556.338028169014" y="430" as="targetPoint" />
          </mxGeometry>
        </mxCell>
        <mxCell id="mPrPklc40p1tScWxE4RS-5" value="&lt;font color=&quot;#000000&quot; style=&quot;font-size: 19px&quot;&gt;&lt;br&gt;&lt;/font&gt;" style="fontColor=#0066CC;verticalAlign=top;verticalLabelPosition=bottom;labelPosition=center;align=center;html=1;outlineConnect=0;fillColor=#CCCCCC;strokeColor=#6881B3;gradientColor=none;gradientDirection=north;strokeWidth=2;shape=mxgraph.networks.proxy_server;" parent="1" vertex="1">
          <mxGeometry x="390" y="469" width="105" height="105" as="geometry" />
        </mxCell>
        <mxCell id="mPrPklc40p1tScWxE4RS-10" style="edgeStyle=none;rounded=0;orthogonalLoop=1;jettySize=auto;html=1;" parent="1" source="mPrPklc40p1tScWxE4RS-6" target="mPrPklc40p1tScWxE4RS-1" edge="1">
          <mxGeometry relative="1" as="geometry">
            <mxPoint x="556.0714285714287" y="400" as="targetPoint" />
          </mxGeometry>
        </mxCell>
        <mxCell id="mPrPklc40p1tScWxE4RS-6" value="&lt;font color=&quot;#000000&quot; style=&quot;font-size: 19px&quot;&gt;&lt;br&gt;&lt;/font&gt;" style="fontColor=#0066CC;verticalAlign=top;verticalLabelPosition=bottom;labelPosition=center;align=center;html=1;outlineConnect=0;fillColor=#CCCCCC;strokeColor=#6881B3;gradientColor=none;gradientDirection=north;strokeWidth=2;shape=mxgraph.networks.proxy_server;" parent="1" vertex="1">
          <mxGeometry x="390" y="257.5" width="105" height="105" as="geometry" />
        </mxCell>
        <mxCell id="mPrPklc40p1tScWxE4RS-8" style="rounded=0;orthogonalLoop=1;jettySize=auto;html=1;" parent="1" source="mPrPklc40p1tScWxE4RS-5" target="mPrPklc40p1tScWxE4RS-1" edge="1">
          <mxGeometry relative="1" as="geometry">
            <mxPoint x="592.1428571428571" y="400" as="sourcePoint" />
          </mxGeometry>
        </mxCell>
        <mxCell id="mPrPklc40p1tScWxE4RS-9" style="edgeStyle=none;rounded=0;orthogonalLoop=1;jettySize=auto;html=1;" parent="1" source="mPrPklc40p1tScWxE4RS-6" target="mPrPklc40p1tScWxE4RS-2" edge="1">
          <mxGeometry relative="1" as="geometry">
            <mxPoint x="592.1428571428571" y="430" as="sourcePoint" />
          </mxGeometry>
        </mxCell>
        <mxCell id="mPrPklc40p1tScWxE4RS-16" style="edgeStyle=none;rounded=0;orthogonalLoop=1;jettySize=auto;html=1;" parent="1" source="mPrPklc40p1tScWxE4RS-15" target="mPrPklc40p1tScWxE4RS-6" edge="1">
          <mxGeometry relative="1" as="geometry" />
        </mxCell>
        <mxCell id="mPrPklc40p1tScWxE4RS-17" style="edgeStyle=none;rounded=0;orthogonalLoop=1;jettySize=auto;html=1;" parent="1" source="mPrPklc40p1tScWxE4RS-15" target="mPrPklc40p1tScWxE4RS-5" edge="1">
          <mxGeometry relative="1" as="geometry" />
        </mxCell>
        <mxCell id="mPrPklc40p1tScWxE4RS-15" value="" style="fontColor=#0066CC;verticalAlign=top;verticalLabelPosition=bottom;labelPosition=center;align=center;html=1;outlineConnect=0;fillColor=#CCCCCC;strokeColor=#6881B3;gradientColor=none;gradientDirection=north;strokeWidth=2;shape=mxgraph.networks.virtual_server;" parent="1" vertex="1">
          <mxGeometry x="210" y="370" width="90" height="100" as="geometry" />
        </mxCell>
        <mxCell id="mPrPklc40p1tScWxE4RS-18" value="" style="fontColor=#0066CC;verticalAlign=top;verticalLabelPosition=bottom;labelPosition=center;align=center;html=1;outlineConnect=0;fillColor=#CCCCCC;strokeColor=#6881B3;gradientColor=none;gradientDirection=north;strokeWidth=2;shape=mxgraph.networks.pc;" parent="1" vertex="1">
          <mxGeometry x="20" y="385" width="100" height="70" as="geometry" />
        </mxCell>
        <mxCell id="mPrPklc40p1tScWxE4RS-19" value="" style="html=1;outlineConnect=0;fillColor=#CCCCCC;strokeColor=#6881B3;gradientColor=none;gradientDirection=north;strokeWidth=2;shape=mxgraph.networks.comm_link_edge;html=1;exitX=1;exitY=0.5;exitDx=0;exitDy=0;exitPerimeter=0;entryX=0;entryY=0.5;entryDx=0;entryDy=0;entryPerimeter=0;" parent="1" source="mPrPklc40p1tScWxE4RS-18" target="mPrPklc40p1tScWxE4RS-15" edge="1">
          <mxGeometry width="100" height="100" relative="1" as="geometry">
            <mxPoint x="120" y="480" as="sourcePoint" />
            <mxPoint x="220" y="380" as="targetPoint" />
          </mxGeometry>
        </mxCell>
        <mxCell id="mPrPklc40p1tScWxE4RS-20" value="&lt;span style=&quot;color: rgb(186 , 0 , 0) ; font-size: 19px&quot;&gt;KeepAlived&lt;/span&gt;&lt;br style=&quot;color: rgb(186 , 0 , 0) ; font-size: 19px&quot;&gt;&lt;span style=&quot;color: rgb(186 , 0 , 0) ; font-size: 19px&quot;&gt;VIP : 192.168.0.101&lt;/span&gt;" style="text;html=1;align=center;verticalAlign=middle;resizable=0;points=[];autosize=1;" parent="1" vertex="1">
          <mxGeometry x="165" y="480" width="180" height="40" as="geometry" />
        </mxCell>
        <mxCell id="mPrPklc40p1tScWxE4RS-22" value="&lt;span style=&quot;font-size: 19px&quot;&gt;Caddy&lt;/span&gt;&lt;br style=&quot;font-size: 19px&quot;&gt;&lt;span style=&quot;font-size: 19px&quot;&gt;IP :192.168.0.146&lt;/span&gt;" style="text;html=1;align=center;verticalAlign=middle;resizable=0;points=[];autosize=1;" parent="1" vertex="1">
          <mxGeometry x="345" y="362.5" width="170" height="40" as="geometry" />
        </mxCell>
        <mxCell id="mPrPklc40p1tScWxE4RS-26" value="&lt;span style=&quot;font-size: 19px&quot;&gt;Caddy&lt;/span&gt;&lt;br style=&quot;font-size: 19px&quot;&gt;&lt;span style=&quot;font-size: 19px&quot;&gt;IP: 192.168.0.107&lt;/span&gt;" style="text;html=1;align=center;verticalAlign=middle;resizable=0;points=[];autosize=1;" parent="1" vertex="1">
          <mxGeometry x="357.5" y="585" width="170" height="40" as="geometry" />
        </mxCell>
        <mxCell id="mPrPklc40p1tScWxE4RS-27" value="&lt;span style=&quot;font-size: 19px&quot;&gt;Tomcat&lt;/span&gt;&lt;br style=&quot;font-size: 19px&quot;&gt;&lt;font style=&quot;font-size: 19px&quot;&gt;IP: 192.168.0.121&lt;/font&gt;" style="text;html=1;align=center;verticalAlign=middle;resizable=0;points=[];autosize=1;" parent="1" vertex="1">
          <mxGeometry x="610" y="370" width="170" height="40" as="geometry" />
        </mxCell>
        <mxCell id="mPrPklc40p1tScWxE4RS-28" value="&lt;span style=&quot;font-size: 19px&quot;&gt;Tomcat&lt;/span&gt;&lt;br style=&quot;font-size: 19px&quot;&gt;&lt;font style=&quot;font-size: 19px&quot;&gt;IP: 192.168.0.122&lt;br&gt;&lt;/font&gt;" style="text;html=1;align=center;verticalAlign=middle;resizable=0;points=[];autosize=1;" parent="1" vertex="1">
          <mxGeometry x="610" y="585" width="170" height="40" as="geometry" />
        </mxCell>
        <mxCell id="mPrPklc40p1tScWxE4RS-29" value="&lt;span style=&quot;color: rgb(0 , 102 , 204)&quot;&gt;PC&lt;/span&gt;" style="text;html=1;align=center;verticalAlign=middle;resizable=0;points=[];autosize=1;" parent="1" vertex="1">
          <mxGeometry x="65" y="469" width="30" height="20" as="geometry" />
        </mxCell>
      </root>
    </mxGraphModel>
  </diagram>
</mxfile>
